<?xml version="1.0" encoding="UTF-8" standalone="no"?>
<svg
   id="a09c848c-d5c4-49aa-a19e-91c8e1064310"
   data-name="Layer 1"
   width="206.92998"
   height="430.09"
   viewBox="0 0 206.92997 430.08998"
   version="1.1"
   xmlns="http://www.w3.org/2000/svg"
   xmlns:svg="http://www.w3.org/2000/svg">
  <defs
     id="defs633" />
  <title
     id="title635">status update</title>
  <path
     d="m 33.389998,405.73002 c 0,0 -12.29,-8.11 -24.4700003,-2.35 0,0 3.7500003,7.23 19.1700003,6.54 z"
     fill="#0b75ce"
     id="path639"
     style="fill:#008000" />
  <path
     d="m 34.899998,406.16002 c 0,0 3.74,14.24 -5.63,23.93 0,0 -5.64,-5.87 -0.05,-20.25 z"
     fill="#0b75ce"
     id="path641"
     style="fill:#008000" />
  <path
     d="m 50.229998,392.49002 c 0,0 -0.91,-12.11 -28.26,-8.1 0,0 -0.12,7.82 9.48,11.52 9.6,3.7 13.99,0.58 18.78,-3.42 z"
     fill="#0b75ce"
     id="path643"
     style="fill:#008000" />
  <path
     d="m 51.909998,392.41002 c 0,0 11.56,3.71 1.25,29.36 0,0 -7.62,-1.7 -9,-11.91 -1.38,-10.21 2.74,-13.74 7.75,-17.45 z"
     fill="#0b75ce"
     id="path645"
     style="fill:#008000" />
  <path
     d="m 67.389998,375.22002 c 0,0 1.57,-19.93 -26.38,-17.88 0,0 -2,18 21.45,22.68 z"
     fill="#0b75ce"
     id="path647"
     style="fill:#008000" />
  <path
     d="m 85.819998,352.73002 c 0,0 -3.83,-22.59 -31.76,-15.86 0,0 -0.11,19.53 27.2,21.24 z"
     fill="#0b75ce"
     id="path649"
     style="fill:#008000" />
  <path
     d="m 99.359998,329.47002 c 0,0 -6.42,-22 -34.1,-15.42 0,0 6.59,19.79 32.26,19.48 z"
     fill="#0b75ce"
     id="path651"
     style="fill:#008000" />
  <path
     d="m 112.18,306.75002 c 0,0 -6.27,-22.83 -33.000002,-16 0,0 8.92,21.69 31.230002,19.87 z"
     fill="#0b75ce"
     id="path653"
     style="fill:#008000" />
  <path
     d="m 120.45,285.17002 c 0,0 -4.82,-27.92 -29.740002,-21.74 0,0 7.23,25.4 27.900002,25.8 z"
     fill="#0b75ce"
     id="path655"
     style="fill:#008000" />
  <path
     d="m 128.19,259.10002 c 0,0 -5.78,-28.15 -31.000002,-20 0,0 9.890002,26.6 29.220002,23.85 z"
     fill="#0b75ce"
     id="path657"
     style="fill:#008000" />
  <path
     d="m 132.99,234.83002 c 0,0 -9.19,-28.14 -28.68,-27.38 0,0 9.4,29.73 27,33 z"
     fill="#0b75ce"
     id="path659"
     style="fill:#008000" />
  <path
     d="m 136.04,211.16002 c 0,0 -10,-33.88 -25.87,-31.27 0,0 6.93,25.9 25.3,36.55 z"
     fill="#0b75ce"
     id="path661"
     style="fill:#008000" />
  <path
     d="m 137.82,182.88002 c 0,0 -9.37,-28.23 -25,-29.36 0,0 6.37,27.78 24.68,36.69 z"
     fill="#0b75ce"
     id="path663"
     style="fill:#008000" />
  <path
     d="m 139.66,156.60002 c 0,0 -11.69,-28.26 -22,-28.9 0,0 5.08,27.83 21,33.54 z"
     fill="#0b75ce"
     id="path665"
     style="fill:#008000" />
  <path
     d="m 140.96,132.03002 c 0,0 -7.18,-30.7 -17.52,-33.239995 0,0 1.41,25.109995 16.48,35.539995 z"
     fill="#0b75ce"
     id="path667"
     style="fill:#008000" />
  <path
     d="m 144.82,99.940025 c 0,0 -7.56,-24.46 -15.93,-28.19 0,0 1.66,28.839995 14,34.179995 z"
     fill="#0b75ce"
     id="path669"
     style="fill:#008000" />
  <path
     d="m 148.08,78.870025 1.53,-43.14 c 0,0 -15.62,32.56 -2.68,50.75 z"
     fill="#0b75ce"
     id="path671"
     style="fill:#008000" />
  <path
     d="m 160.17,36.000025 c 0,0 11.26,-31.5000002 14,-33.2600002 0,0 -22.1,20.4400002 -19.94,46.7300002 z"
     fill="#0b75ce"
     id="path673"
     style="fill:#008000" />
  <path
     d="m 68.159998,375.08002 c 0,0 19.82,-2.6 19.22,25.42 0,0 -17.91,2.91 -23.75,-20.25 z"
     fill="#0b75ce"
     id="path675"
     style="fill:#008000" />
  <path
     d="m 86.819998,351.97002 c 0,0 22.910002,-0.07 21.000002,28.6 0,0 -19.220002,3.43 -25.570002,-23.18 z"
     fill="#0b75ce"
     id="path677"
     style="fill:#008000" />
  <path
     d="m 99.579998,331.32002 c 0,0 20.790002,-9.75 34.100002,15.42 0,0 -19.21,8.12 -35.930002,-11.35 z"
     fill="#0b75ce"
     id="path679"
     style="fill:#008000" />
  <path
     d="m 112.64,306.96002 c 0,0 21.29,-10.37 33.79,14.21 0,0 -22.17,7.64 -35.54,-10.32 z"
     fill="#0b75ce"
     id="path681"
     style="fill:#008000" />
  <path
     d="m 120.17,285.78002 c 0,0 20.49,-19.58 36.85,0.22 0,0 -20.94,16.1 -37.79,4.14 z"
     fill="#0b75ce"
     id="path683"
     style="fill:#008000" />
  <path
     d="m 127.03,258.43002 c 0,0 20.62,-20 36.84,0.92 0,0 -23.14,16.43 -37.57,3.28 z"
     fill="#0b75ce"
     id="path685"
     style="fill:#008000" />
  <path
     d="m 130.89,234.03002 c 0,0 15.88,-25 34.57,-19.41 0,0 -16.47,26.47 -34.4,25.29 z"
     fill="#0b75ce"
     id="path687"
     style="fill:#008000" />
  <path
     d="m 135.57,211.00002 c 0,0 16,-31.49 31.13,-26 0,0 -11.53,24.2 -31.54,31.31 z"
     fill="#0b75ce"
     id="path689"
     style="fill:#008000" />
  <path
     d="m 136.67,181.27002 c 0,0 16.45,-24.78 31.86,-21.76 0,0 -13.45,25.13 -33.45,28.93 z"
     fill="#0b75ce"
     id="path691"
     style="fill:#008000" />
  <path
     d="m 137.92,155.99002 c 0,0 12.75,-27.8 23.12,-28 0,0 -6.13,27.61 -22.26,32.72 z"
     fill="#0b75ce"
     id="path693"
     style="fill:#008000" />
  <path
     d="m 140.45,131.43002 c 0,0 14.17,-28.17 24.82,-28.22 0,0 -7.25,24.08 -24.35,30.69 z"
     fill="#0b75ce"
     id="path695"
     style="fill:#008000" />
  <path
     d="m 142.58,101.67002 c 0,0 10.6,-23.299995 19.38,-25.939995 0,0 -5.3,28.399995 -18.21,32.119995 z"
     fill="#0b75ce"
     id="path697"
     style="fill:#008000" />
  <path
     d="m 149.34,78.050025 23.69,-36.08 c 0,0 -6.07,35.6 -27.14,43 z"
     fill="#0b75ce"
     id="path699"
     style="fill:#008000" />
  <path
     d="m 165.6,38.900025 c 0,0 27.54,-19 28.53,-22.08 0,0 -14,26.62 -40,31.32 z"
     fill="#0b75ce"
     id="path701"
     style="fill:#008000" />
  <path
     d="m 167.25,30.350025 c 0,0 31.61,-30.38000019 39.68,-30.350000193377 0,0 -26.07,1.189999993377 -40.44,28.740000193377 z"
     fill="#0b75ce"
     id="path703"
     style="fill:#008000" />
  <path
     d="m 142.89,106.18002 1.15,0.15 c 5.94,-46.499995 14.6,-73.999995 24.39,-77.369995 l -0.38,-1.1 c -10.38,3.6 -19.08,30.68 -25.16,78.319995 z"
     fill="#444053"
     id="path705" />
  <path
     d="m 134.16,217.35002 1.74,0.15 c 0.36,-4.34 0.64,-8.79 0.83,-13.21 1.66,-38.48 4.23,-73.82 7.62,-100.31 l -1,-1.25 c -3.39,26.54 -6.69,62.95 -8.35,101.49 -0.18,4.38 -0.48,8.82 -0.84,13.13 z"
     fill="#444053"
     id="path707" />
  <path
     d="m 0.92999772,427.86002 c 0.30999998,-0.13 30.94000028,-13.81 62.73000028,-46.44 a 252.42,252.42 0 0 0 45.850002,-65 c 14.69,-29.93 23.65,-66.71 26.66,-102.44 l -1.82,0.85 c -6.74,80.2 -43.260002,135 -72.290002,164.85 -31.48,32.33 -61.76000028,45.87 -62.0600002827545,46 z"
     fill="#444053"
     id="path709" />
</svg>
